<svg xmlns="http://www.w3.org/2000/svg" viewBox="0 0 64 64" width="64" height="64">
  <rect width="64" height="64" fill="#0B0B0C"/>
  <g transform="translate(9.60 14.08) scale(0.17920)">
  <path d="M 43 96 L 71 96 L 114 196 L 96 204 Z" fill="#C9A227"/>
  <g fill="#FAFAF8">
    <path d="M 18 0 L 32 0 L 32 194 L 18 194 Z"/>
    <path d="M 4 0 L 46 0 L 46 6 L 4 6 Z"/>
    <path d="M 0 188 L 50 188 L 50 200 L 0 200 Z"/>
    <path d="M 18 0 L 58 0 L 144 196 L 114 196 Z"/>
    <path d="M 214 0 L 226 0 L 142 196 L 130 196 Z"/>
    <path d="M 212 0 L 230 0 L 230 194 L 212 194 Z"/>
    <path d="M 200 0 L 244 0 L 244 6 L 200 6 Z"/>
    <path d="M 196 188 L 250 188 L 250 200 L 196 200 Z"/>
  </g>
</g>
</svg>
