<svg xmlns="http://www.w3.org/2000/svg" viewBox="0 0 390 298" width="390" height="298" role="img" aria-label="MMAKO LAW logo">
  <g transform="translate(70.0 0)">
  <path d="M 43 96 L 71 96 L 114 196 L 96 204 Z" fill="#FFFFFF"/>
  <g fill="#FFFFFF">
    <path d="M 18 0 L 32 0 L 32 194 L 18 194 Z"/>
    <path d="M 4 0 L 46 0 L 46 6 L 4 6 Z"/>
    <path d="M 0 188 L 50 188 L 50 200 L 0 200 Z"/>
    <path d="M 18 0 L 58 0 L 144 196 L 114 196 Z"/>
    <path d="M 214 0 L 226 0 L 142 196 L 130 196 Z"/>
    <path d="M 212 0 L 230 0 L 230 194 L 212 194 Z"/>
    <path d="M 200 0 L 244 0 L 244 6 L 200 6 Z"/>
    <path d="M 196 188 L 250 188 L 250 200 L 196 200 Z"/>
  </g>
</g>
  <text x="195.0" y="270.1" text-anchor="middle"
        font-family="Inter, Arial, sans-serif" font-size="40.0" font-weight="300"
        letter-spacing="17.60"
        fill="#FFFFFF">MMAKO LAW</text>
  <rect x="143.8" y="290.1" width="102.5" height="3" fill="#FFFFFF"/>
</svg>
